# xmcd
#
# Track frame offsets:
#	150
#	12126
#	21849
#	37680
#	54405
#	67037
#	80334
#	94539
#	103893
#	124098
#	139145
#	158699
#	173194
#	193804
#	210618
#	230322
#	246217
#	263559
#
# Disc length: 3752 seconds
#
# Revision: 0
# Processed by: cddbd v1.5.2PL0 Copyright (c) Steve Scherf et al.
# Submitted via: audiograbber 1.83.01
#
DISCID=e70ea612
DTITLE=Anne Murray - As I Am
DYEAR=2000
DGENRE=Country
TTITLE0=Last Thing On My Mind
TTITLE1=You're Easy To Love
TTITLE2=You've Got What It Takes
TTITLE3=Take This Heart
TTITLE4=For No Reason At All
TTITLE5=That's Why I Love You
TTITLE6=(He Can't Help It If) He's Not You
TTITLE7=Heaven Is Here
TTITLE8=Flying On Your Own
TTITLE9=If I Don't Fall Tonigh
TTITLE10=You Make Me Curious
TTITLE11=As I Am
TTITLE12=I'm Losing Your Love
TTITLE13=I'll Be Your Eyes
TTITLE14=Slow All Night
TTITLE15=Who, But You
TTITLE16=Take It From My Heart
TTITLE17=Slow Passin' Time
EXTD=
EXTT0=
EXTT1=
EXTT2=
EXTT3=
EXTT4=
EXTT5=
EXTT6=
EXTT7=
EXTT8=
EXTT9=
EXTT10=
EXTT11=
EXTT12=
EXTT13=
EXTT14=
EXTT15=
EXTT16=
EXTT17=
PLAYORDER=
